{
  "accessors": [
    {
      "bufferView": 2,
      "componentType": 5126,
      "count": 2398,
      "max": [
        1,
        0.32966798543930054,
        0.4193490147590637
      ],
      "min": [
        -1,
        -0.32966798543930054,
        -0.4193490147590637
      ],
      "type": "VEC3"
    },
    {
      "bufferView": 2,
      "byteOffset": 28776,
      "componentType": 5126,
      "count": 2398,
      "max": [
        0.9998863935470581,
        0.999534547328949,
        0.9999374151229858
      ],
      "min": [
        -0.9999016523361206,
        -0.9996017813682556,
        -0.9999217987060547
      ],
      "type": "VEC3"
    },
    {
      "bufferView": 3,
      "componentType": 5126,
      "count": 2398,
      "max": [
        0.9960220456123352,
        1,
        0.9999983906745911,
        1
      ],
      "min": [
        -0.9999929070472717,
        -1,
        -0.9998952150344849,
        -1
      ],
      "type": "VEC4"
    },
    {
      "bufferView": 1,
      "componentType": 5126,
      "count": 2398,
      "max": [
        0.902400016784668,
        0.993399977684021
      ],
      "min": [
        0.004100000020116568,
        0.0032999999821186066
      ],
      "type": "VEC2"
    },
    {
      "bufferView": 0,
      "componentType": 5125,
      "count": 11664,
      "type": "SCALAR"
    }
  ],
  "asset": {
    "extras": {
      "author": "Urpo (https://sketchfab.com/Urpo)",
      "license": "CC-BY-4.0 (http://creativecommons.org/licenses/by/4.0/)",
      "source": "https://sketchfab.com/3d-models/sofa-80edec2de8c04a4fb335a48b550a2336",
      "title": "Sofa"
    },
    "generator": "Sketchfab-12.67.0",
    "version": "2.0"
  },
  "bufferViews": [
    {
      "buffer": 0,
      "byteLength": 46656,
      "name": "floatBufferViews",
      "target": 34963,
      "byteOffset": 0
    },
    {
      "buffer": 0,
      "byteLength": 19184,
      "byteOffset": 46656,
      "byteStride": 8,
      "name": "floatBufferViews",
      "target": 34962
    },
    {
      "buffer": 0,
      "byteLength": 57552,
      "byteOffset": 65840,
      "byteStride": 12,
      "name": "floatBufferViews",
      "target": 34962
    },
    {
      "buffer": 0,
      "byteLength": 38368,
      "byteOffset": 123392,
      "byteStride": 16,
      "name": "floatBufferViews",
      "target": 34962
    }
  ],
  "buffers": [
    {
      "uri": "sofa_data.bin",
      "byteLength": 161760
    }
  ],
  "images": [
    {
      "uri": "sofa_img0.jpg"
    },
    {
      "uri": "sofa_img1.png"
    },
    {
      "uri": "sofa_img2.png"
    }
  ],
  "materials": [
    {
      "doubleSided": true,
      "name": "01___Default",
      "normalTexture": {
        "index": 2
      },
      "occlusionTexture": {
        "index": 1
      },
      "pbrMetallicRoughness": {
        "baseColorTexture": {
          "index": 0
        },
        "metallicRoughnessTexture": {
          "index": 1
        }
      }
    }
  ],
  "meshes": [
    {
      "name": "defaultMaterial",
      "primitives": [
        {
          "attributes": {
            "NORMAL": 1,
            "POSITION": 0,
            "TANGENT": 2,
            "TEXCOORD_0": 3
          },
          "indices": 4,
          "material": 0,
          "mode": 4
        }
      ]
    }
  ],
  "nodes": [
    {
      "children": [
        1
      ],
      "matrix": [
        1,
        0,
        0,
        0,
        0,
        2.220446049250313e-16,
        -1,
        0,
        0,
        1,
        2.220446049250313e-16,
        0,
        0,
        0,
        0,
        1
      ],
      "name": "Sketchfab_model"
    },
    {
      "children": [
        2
      ],
      "matrix": [
        1,
        0,
        0,
        0,
        0,
        -4.371139006309477e-8,
        0.999999999999999,
        0,
        0,
        -0.999999999999999,
        -4.371139006309477e-8,
        0,
        0,
        0,
        0,
        1
      ],
      "name": "Collada visual scene group"
    },
    {
      "children": [
        3
      ],
      "name": "g"
    },
    {
      "mesh": 0,
      "name": "defaultMaterial"
    }
  ],
  "samplers": [
    {
      "magFilter": 9729,
      "minFilter": 9987,
      "wrapS": 10497,
      "wrapT": 10497
    }
  ],
  "scene": 0,
  "scenes": [
    {
      "name": "Sketchfab_Scene",
      "nodes": [
        0
      ]
    }
  ],
  "textures": [
    {
      "sampler": 0,
      "source": 0
    },
    {
      "sampler": 0,
      "source": 1
    },
    {
      "sampler": 0,
      "source": 2
    }
  ]
}